%TF.GenerationSoftware,KiCad,Pcbnew,10.0.3*%
%TF.CreationDate,2026-06-15T11:35:05+05:30*%
%TF.ProjectId,First,46697273-742e-46b6-9963-61645f706362,rev?*%
%TF.SameCoordinates,Original*%
%TF.FileFunction,Legend,Top*%
%TF.FilePolarity,Positive*%
%FSLAX46Y46*%
G04 Gerber Fmt 4.6, Leading zero omitted, Abs format (unit mm)*
G04 Created by KiCad (PCBNEW 10.0.3) date 2026-06-15 11:35:05*
%MOMM*%
%LPD*%
G01*
G04 APERTURE LIST*
%ADD10C,0.150000*%
%ADD11C,0.120000*%
G04 APERTURE END LIST*
D10*
X102261905Y-82454819D02*
X102261905Y-81454819D01*
X102261905Y-81454819D02*
X102500000Y-81454819D01*
X102500000Y-81454819D02*
X102642857Y-81502438D01*
X102642857Y-81502438D02*
X102738095Y-81597676D01*
X102738095Y-81597676D02*
X102785714Y-81692914D01*
X102785714Y-81692914D02*
X102833333Y-81883390D01*
X102833333Y-81883390D02*
X102833333Y-82026247D01*
X102833333Y-82026247D02*
X102785714Y-82216723D01*
X102785714Y-82216723D02*
X102738095Y-82311961D01*
X102738095Y-82311961D02*
X102642857Y-82407200D01*
X102642857Y-82407200D02*
X102500000Y-82454819D01*
X102500000Y-82454819D02*
X102261905Y-82454819D01*
X103785714Y-82454819D02*
X103214286Y-82454819D01*
X103500000Y-82454819D02*
X103500000Y-81454819D01*
X103500000Y-81454819D02*
X103404762Y-81597676D01*
X103404762Y-81597676D02*
X103309524Y-81692914D01*
X103309524Y-81692914D02*
X103214286Y-81740533D01*
X102793333Y-89804819D02*
X102460000Y-89328628D01*
X102221905Y-89804819D02*
X102221905Y-88804819D01*
X102221905Y-88804819D02*
X102602857Y-88804819D01*
X102602857Y-88804819D02*
X102698095Y-88852438D01*
X102698095Y-88852438D02*
X102745714Y-88900057D01*
X102745714Y-88900057D02*
X102793333Y-88995295D01*
X102793333Y-88995295D02*
X102793333Y-89138152D01*
X102793333Y-89138152D02*
X102745714Y-89233390D01*
X102745714Y-89233390D02*
X102698095Y-89281009D01*
X102698095Y-89281009D02*
X102602857Y-89328628D01*
X102602857Y-89328628D02*
X102221905Y-89328628D01*
X103745714Y-89804819D02*
X103174286Y-89804819D01*
X103460000Y-89804819D02*
X103460000Y-88804819D01*
X103460000Y-88804819D02*
X103364762Y-88947676D01*
X103364762Y-88947676D02*
X103269524Y-89042914D01*
X103269524Y-89042914D02*
X103174286Y-89090533D01*
%TO.C,D1*%
D11*
X101315000Y-83040000D02*
X101315000Y-84960000D01*
X101315000Y-84960000D02*
X104000000Y-84960000D01*
X104000000Y-83040000D02*
X101315000Y-83040000D01*
%TO.C,R1*%
X102732936Y-90265000D02*
X103187064Y-90265000D01*
X102732936Y-91735000D02*
X103187064Y-91735000D01*
%TD*%
M02*
